<?xml version="1.0" encoding="UTF-8"?>
<svg id="_레이어_2" data-name="레이어 2" xmlns="http://www.w3.org/2000/svg" xmlns:xlink="http://www.w3.org/1999/xlink" viewBox="0 0 735.96 215">
  <defs>
    <style>
      .cls-1 {
        fill: #17191c;
      }

      .cls-2 {
        fill: url(#_무제_그라디언트_5);
      }

      .cls-3 {
        opacity: .99;
      }
    </style>
    <linearGradient id="_무제_그라디언트_5" data-name="무제 그라디언트 5" x1="-586.69" y1="902.3" x2="-585.39" y2="901.78" gradientTransform="translate(108069.62 93927.65) scale(183.76 -104)" gradientUnits="userSpaceOnUse">
      <stop offset="0" stop-color="#02fddc"/>
      <stop offset="1" stop-color="#c111ff"/>
    </linearGradient>
  </defs>
  <g id="Layer_1" data-name="Layer 1">
    <g id="Group-3-Copy-2">
      <g id="Group">
        <g id="soop_logo" data-name="soop logo">
          <path id="Shape" class="cls-2" d="M425.98,0c-31.97,0-60.69,13.85-80.45,35.84-.84.95-2.31.95-3.15,0C322.63,13.85,293.91,0,261.94,0c-59.61,0-107.92,48.13-107.92,107.5s48.32,107.5,107.92,107.5c31.97,0,60.68-13.85,80.45-35.84.84-.95,2.31-.95,3.15,0,19.76,21.99,48.48,35.84,80.45,35.84,59.61,0,107.92-48.13,107.92-107.5S485.59,0,425.98,0ZM425.98,163.4c-17.27,0-31.7-8.29-40.55-17.65-2.82-2.99-6.31-7.08-10.16-10.56-1.83-1.66-3.66-3.14-5.41-4.47-7.22-5.13-16.18-8.17-25.9-8.17s-18.68,3.04-25.9,8.17c-1.76,1.33-3.57,2.82-5.41,4.47-3.85,3.47-7.34,7.57-10.15,10.56-8.85,9.36-23.28,17.65-40.55,17.65-.44,0-.87-.02-1.32-.03-.75-.02-1.49-.04-2.22-.09-.51-.03-1.01-.08-1.51-.12-.3-.02-.6-.05-.9-.08-28.2-2.96-50.17-26.71-50.17-55.59v.24-.47.24c0-28.86,21.97-52.62,50.16-55.59.31-.03.64-.05.95-.09.49-.04.97-.07,1.46-.11.75-.04,1.49-.06,2.24-.09.43,0,.86-.03,1.29-.03,17.27,0,31.7,8.29,40.55,17.65,2.82,2.99,6.31,7.08,10.16,10.56,1.84,1.65,3.66,3.14,5.41,4.47,7.22,5.13,16.18,8.17,25.9,8.17s18.68-3.04,25.9-8.17c1.76-1.33,3.57-2.82,5.41-4.47,3.85-3.47,7.34-7.57,10.16-10.56,8.85-9.36,23.28-17.65,40.55-17.65.43,0,.85.02,1.28.03.76.02,1.51.04,2.26.09.48.03.95.06,1.43.11.33.02.67.05,1,.09,27.11,2.86,48.46,24.94,50.04,52.31,0,.18.02.35.03.53.02.51.03,1.02.04,1.53.01.76.02,1.52,0,2.28-.01.57-.01,1.15-.04,1.72,0,.12-.02.24-.02.35-1.52,27.42-22.9,49.58-50.05,52.44-.34.03-.68.06-1.02.09-.46.04-.93.08-1.39.11-.75.04-1.51.06-2.27.09-.43,0-.85.03-1.28.03v.02Z"/>
        </g>
        <g id="LOOK" class="cls-3">
          <path id="Vector" class="cls-1" d="M555.82,214.19V1.24h32.29c10.41,0,18.68,8.25,18.68,18.63v40.2l54.62-54.48c2.79-2.78,6.57-4.35,10.51-4.35h64.03l-107.28,107.01,106.22,105.95h-70.19l-57.91-57.76v57.76h-50.97Z"/>
          <path id="Vector-2" data-name="Vector" class="cls-1" d="M0,213.76V.81h32.29c6.17,0,11.59,2.9,14.98,7.37,2.33,3.07,3.7,6.88,3.7,11v143.75h89.15v50.84H0Z"/>
        </g>
      </g>
    </g>
  </g>
</svg>